#!OML:ASF F:\VICON\USERDATA\INSTALL\rory3\rory3.ASF
:FULLY-SPECIFIED
:DEGREES
4290
root -1.15261 18.5964 2.38403 -13.8594 -46.8722 20.6913
lowerback 7.73383 -2.91129 2.20437
upperback 1.73384 -3.62147 5.61101
thorax -2.30311 -1.84725 4.93896
lowerneck -15.5549 5.46909 -1.81316
upperneck 9.94364 6.94412 5.63659
head 5.25404 3.73459 2.66957
rclavicle 1.00187e-013 -1.59028e-014
rhumerus -21.1343 13.629 -64.7161
rradius 45.6718
rwrist -15.0945
rhand -33.5414 359.424
rfingers 7.12502
rthumb -6.73689 -30.4485
lclavicle 1.00187e-013 -1.59028e-014
lhumerus 42.828 -20.2761 0.893399
lradius 59.5939
lwrist -25.9716
lhand -44.7755 22.8877
lfingers 7.12502
lthumb -17.5676 52.114
rfemur -17.8974 26.1059 -2.67131
rtibia 34.3393
rfoot -20.0818 -3.51216
rtoes -3.91297
lfemur 7.08421 7.40677 -24.0484
ltibia 12.5392
lfoot -7.21751 21.1976
ltoes -20.0412
4291
root -1.14562 18.6194 2.4045 -13.8238 -47.1779 20.6134
lowerback 7.75217 -2.77285 2.08899
upperback 1.60795 -3.43647 5.66712
thorax -2.44642 -1.75262 5.05268
lowerneck -15.5404 5.41315 -1.8363
upperneck 9.94109 6.87572 5.629
head 5.2532 3.69978 2.66478
rclavicle 1.19271e-014 -1.27222e-014
rhumerus -21.3759 13.8799 -64.741
rradius 45.5302
rwrist -15.0341
rhand -33.6014 359.24
rfingers 7.12502
rthumb -6.79475 -30.6309
lclavicle 1.19271e-014 -1.27222e-014
lhumerus 42.3453 -19.02 1.16439
lradius 58.7876
lwrist -26.1949
lhand -44.5903 22.973
lfingers 7.12502
lthumb -17.3894 52.2151
rfemur -17.68 26.1839 -2.62638
rtibia 33.7757
rfoot -19.853 -3.33378
rtoes -3.745
lfemur 7.36226 7.27512 -24.0105
ltibia 12.1358
lfoot -6.95416 21.456
ltoes -20.1632
4292
root -1.14039 18.6415 2.42545 -13.6329 -47.5509 20.3637
lowerback 7.68235 -2.64059 2.13076
upperback 1.52388 -3.25531 5.73724
thorax -2.5059 -1.66199 5.08545
lowerneck -15.3932 5.3584 -1.9519
upperneck 9.68674 6.8228 5.71278
head 5.14463 3.67346 2.69227
rclavicle -2.54444e-014 -1.74931e-013
rhumerus -21.5415 14.2592 -64.7728
rradius 45.4032
rwrist -15.2023
rhand -33.6876 359.274
rfingers 7.12502
rthumb -6.87797 -30.5943
lclavicle -2.54444e-014 -1.74931e-013
lhumerus 41.9196 -17.6985 1.38956
lradius 57.9187
lwrist -26.333
lhand -44.4694 23.0158
lfingers 7.12502
lthumb -17.273 52.2682
rfemur -17.4997 26.3902 -2.45362
rtibia 33.2011
rfoot -19.5942 -3.23999
rtoes -3.66178
lfemur 7.58971 7.16606 -23.818
ltibia 11.7329
lfoot -6.62183 21.6729
ltoes -20.7529
4293
root -1.13839 18.66 2.44851 -13.7283 -47.8667 20.3842
lowerback 7.59312 -2.50931 2.00613
upperback 1.50726 -3.09478 5.74277
thorax -2.47804 -1.58139 5.14196
lowerneck -15.3063 5.28211 -2.06957
upperneck 9.43535 6.74521 5.76923
head 5.04909 3.63352 2.71205
rclavicle 5.24792e-014 6.99722e-014
rhumerus -21.574 14.3052 -64.8438
rradius 45.1247
rwrist -15.132
rhand -33.4397 359.555
rfingers 7.12502
rthumb -6.63865 -30.321
lclavicle 5.24792e-014 6.99722e-014
lhumerus 41.615 -16.2855 1.66285
lradius 56.9219
lwrist -26.4639
lhand -44.6332 22.6282
lfingers 7.12502
lthumb -17.4306 51.8667
rfemur -17.179 26.6176 -2.45211
rtibia 32.6068
rfoot -19.4006 -3.12178
rtoes -3.52312
lfemur 7.91697 7.01944 -23.8271
ltibia 11.3612
lfoot -6.40431 21.884
ltoes -20.8197
4294
root -1.13774 18.677 2.47209 -13.9896 -48.1769 20.5561
lowerback 7.57637 -2.37114 1.79759
upperback 1.48408 -2.92707 5.70785
thorax -2.49655 -1.49577 5.20736
lowerneck -15.2915 5.20782 -1.96426
upperneck 9.30774 6.64456 5.63586
head 5.01956 3.57784 2.64234
rclavicle -2.62396e-014 -6.36111e-015
rhumerus -21.6486 14.2504 -64.9297
rradius 44.8551
rwrist -14.9564
rhand -33.3034 359.619
rfingers 7.12502
rthumb -6.50714 -30.2615
lclavicle -2.62396e-014 -6.36111e-015
lhumerus 41.3514 -14.8945 1.97108
lradius 55.9516
lwrist -26.6865
lhand -44.5528 22.3764
lfingers 7.12502
lthumb -17.3533 51.6217
rfemur -16.8442 26.8119 -2.54119
rtibia 32.0339
rfoot -19.1655 -2.91593
rtoes -3.18056
lfemur 8.36858 6.97033 -23.9399
ltibia 10.894
lfoot -5.91754 22.0804
ltoes -21.5913
4295
root -1.13537 18.6948 2.49118 -14.0893 -48.5215 20.6063
lowerback 7.59218 -2.19424 1.73112
upperback 1.43452 -2.6932 5.65258
thorax -2.57428 -1.37703 5.1675
lowerneck -15.4595 5.11876 -1.88718
upperneck 9.3458 6.50251 5.67499
head 5.06627 3.51534 2.6382
rclavicle -3.65764e-014 2.22639e-014
rhumerus -21.8226 14.1254 -65.0407
rradius 44.6723
rwrist -14.8556
rhand -33.3299 359.581
rfingers 7.12502
rthumb -6.53272 -30.2978
lclavicle -3.65764e-014 2.22639e-014
lhumerus 41.2508 -13.4701 2.27988
lradius 55.0038
lwrist -26.8089
lhand -44.4063 22.3022
lfingers 7.12502
lthumb -17.2123 51.5599
rfemur -16.6309 26.9363 -2.55092
rtibia 31.4841
rfoot -18.8342 -2.78846
rtoes -3.45354
lfemur 8.78829 6.93775 -23.9475
ltibia 10.3029
lfoot -5.34095 22.2474
ltoes -22.3132
4296
root -1.13556 18.7144 2.50619 -14.0465 -48.9112 20.605
lowerback 7.55228 -2.03246 1.5429
upperback 1.35121 -2.48886 5.70652
thorax -2.64362 -1.27248 5.31326
lowerneck -15.5469 5.1095 -2.07298
upperneck 9.29829 6.49776 5.92757
head 5.05104 3.5249 2.74725
rclavicle 6.36111e-014 9.54166e-015
rhumerus -21.8876 14.2124 -65.0967
rradius 44.3984
rwrist -14.7562
rhand -33.4566 359.495
rfingers 7.12502
rthumb -6.655 -30.3801
lclavicle 6.36111e-014 9.54166e-015
lhumerus 40.9849 -12.0356 2.77783
lradius 54.0263
lwrist -26.9016
lhand -44.5231 22.5962
lfingers 7.12502
lthumb -17.3247 51.8441
rfemur -16.5654 27.0323 -2.54623
rtibia 30.9438
rfoot -18.4688 -2.70265
rtoes -4.01419
lfemur 9.05134 6.88519 -23.883
ltibia 9.80772
lfoot -5.13248 22.3908
ltoes -22.1909
4297
root -1.13736 18.7364 2.51589 -14.0393 -49.1836 20.8339
lowerback 7.39062 -1.92598 1.09122
upperback 1.2207 -2.38041 5.78191
thorax -2.67602 -1.21276 5.63659
lowerneck -15.5218 5.11386 -2.34542
upperneck 9.12465 6.53238 6.19182
head 4.97295 3.54982 2.86921
rclavicle 8.74653e-015 -5.40694e-014
rhumerus -21.8734 14.4928 -65.1176
rradius 44.1626
rwrist -14.7053
rhand -33.2978 359.317
rfingers 7.12502
rthumb -6.50173 -30.5637
lclavicle 8.74653e-015 -5.40694e-014
lhumerus 40.6023 -10.596 3.29454
lradius 53.0283
lwrist -27.0462
lhand -44.6807 23.1237
lfingers 7.12502
lthumb -17.4764 52.3581
rfemur -16.6232 27.0199 -2.7944
rtibia 30.3713
rfoot -18.1355 -2.62515
rtoes -4.2901
lfemur 8.994 6.74548 -24.0047
ltibia 9.58997
lfoot -5.0798 22.526
ltoes -21.6288
4298
root -1.14086 18.7593 2.5169 -13.714 -49.3769 20.8733
lowerback 7.12865 -1.83072 0.791482
upperback 1.02102 -2.27394 5.83266
thorax -2.73288 -1.15311 5.84593
lowerneck -15.5022 5.06524 -2.41731
upperneck 8.95999 6.47406 6.29519
head 4.9154 3.52479 2.90296
rclavicle 6.36111e-015 3.18055e-014
rhumerus -21.9087 14.5362 -65.1827
rradius 43.9142
rwrist -14.5465
rhand -33.0931 359.341
rfingers 7.12502
rthumb -6.30414 -30.5454
lclavicle 6.36111e-015 3.18055e-014
lhumerus 40.4485 -9.14224 3.81001
lradius 51.9713
lwrist -27.2429
lhand -44.6395 23.4918
lfingers 7.12502
lthumb -17.4367 52.7297
rfemur -16.7847 27.1439 -2.99816
rtibia 29.7312
rfoot -17.9159 -2.80189
rtoes -4.07315
lfemur 8.60068 6.48057 -23.9998
ltibia 9.54316
lfoot -4.93428 22.6305
ltoes -21.3752
4299
root -1.14279 18.7818 2.52704 -13.1693 -49.7908 20.3578
lowerback 7.01655 -1.69399 1.09621
upperback 0.91482 -2.06727 5.87202
thorax -2.80943 -1.05106 5.69373
lowerneck -15.7199 5.0068 -2.29816
upperneck 9.13557 6.35729 6.3536
head 5.01338 3.47896 2.90588
rclavicle 4.85035e-014 8.26944e-014
rhumerus -21.971 14.2811 -65.3487
rradius 43.5754
rwrist -14.2574
rhand -33.1187 359.396
rfingers 7.12502
rthumb -6.32881 -30.4895
lclavicle 4.85035e-014 8.26944e-014
lhumerus 40.4842 -7.66126 4.37506
lradius 50.8909
lwrist -27.5651
lhand -44.787 23.6982
lfingers 7.12502
lthumb -17.5787 52.9235
rfemur -16.6919 27.4807 -2.66444
rtibia 28.9845
rfoot -17.792 -3.11804
rtoes -4.08643
lfemur 8.39766 6.36221 -23.5765
ltibia 9.65732
lfoot -4.86457 22.6657
ltoes -21.3797
4300
root -1.14484 18.8047 2.54691 -12.7896 -50.3168 19.7028
lowerback 7.09679 -1.57896 1.55295
upperback 0.933147 -1.87824 5.92013
thorax -2.86528 -0.96237 5.47043
lowerneck -15.85 4.99004 -2.08377
upperneck 9.15633 6.28866 6.33861
head 5.05207 3.45284 2.86721
rclavicle -3.4191e-014 2.22639e-014
rhumerus -21.9845 14.3206 -65.5636
rradius 43.2543
rwrist -14.0993
rhand -33.2537 359.506
rfingers 7.12502
rthumb -6.45918 -30.3751
lclavicle -3.4191e-014 2.22639e-014
lhumerus 40.4138 -6.10439 4.98612
lradius 49.8191
lwrist -28.1197
lhand -44.9872 24.2286
lfingers 7.12502
lthumb -17.7714 53.4365
rfemur -16.2453 27.8856 -2.08641
rtibia 28.1322
rfoot -17.7972 -3.39735
rtoes -5.07992
lfemur 8.43977 6.35981 -23.0556
ltibia 10.0312
lfoot -4.9642 22.6202
ltoes -21.6778
4301
root -1.14956 18.8312 2.56344 -12.4095 -50.7775 19.0815
lowerback 7.23932 -1.48782 1.88547
upperback 0.86777 -1.71974 6.03407
thorax -3.03238 -0.886213 5.39566
lowerneck -15.5273 4.98362 -2.08681
upperneck 8.70505 6.28419 6.42134
head 4.85659 3.44903 2.86982
rclavicle 9.54166e-015 2.54444e-014
rhumerus -22.1037 14.5717 -65.707
rradius 43.017
rwrist -14.0412
rhand -33.4364 359.554
rfingers 7.12502
rthumb -6.63551 -30.322
lclavicle 9.54166e-015 2.54444e-014
lhumerus 40.3634 -4.61941 5.64983
lradius 48.7632
lwrist -28.5205
lhand -44.7192 24.8589
lfingers 7.12502
lthumb -17.5134 54.0901
rfemur -15.7475 28.2297 -1.543
rtibia 27.2321
rfoot -18.0562 -3.67275
rtoes -5.80775
lfemur 8.40266 6.07568 -22.5762
ltibia 10.4899
lfoot -5.2131 22.7474
ltoes -21.6497
4302
root -1.15611 18.8533 2.57373 -11.789 -51.2293 18.2907
lowerback 7.39566 -1.40331 2.24611
upperback 0.689541 -1.55639 6.22591
thorax -3.32275 -0.807048 5.39104
lowerneck -15.2463 4.97739 -2.17955
upperneck 8.48121 6.28196 6.58734
head 4.73337 3.45101 2.92021
rclavicle 3.02153e-014 -1.90833e-014
rhumerus -22.2725 14.5911 -65.8039
rradius 42.6758
rwrist -13.7477
rhand -33.5697 359.676
rfingers 7.12502
rthumb -6.76415 -30.1959
lclavicle 3.02153e-014 -1.90833e-014
lhumerus 40.3009 -3.21313 6.49314
lradius 47.7627
lwrist -28.7463
lhand -44.4507 25.1909
lfingers 7.12502
lthumb -17.255 54.4448
rfemur -15.3782 28.5763 -0.939317
rtibia 26.3785
rfoot -18.5706 -3.99419
rtoes -5.62904
lfemur 8.26433 5.9048 -21.9332
ltibia 10.8374
lfoot -5.43224 22.7887
ltoes -21.3057
